<svg id="Layer_1" xmlns="http://www.w3.org/2000/svg" xmlns:xlink="http://www.w3.org/1999/xlink" viewBox="0 0 239.5 240"><style>.st0{fill:none;stroke-width:15;stroke-miterlimit:10}.st0,.st1{stroke:#fff}.st1,.st2{fill:none;stroke-miterlimit:10}.st1{stroke-width:3}.st2{clip-path:url(#XMLID_54_);stroke:#232323;stroke-width:6;stroke-linecap:round}</style><path id="XMLID_1345_" class="st0" d="M231.1 119.4c0 61.5-49.9 111.4-111.4 111.4S8.3 181 8.3 119.4 58.2 8 119.7 8"/><path id="XMLID_1344_" class="st1" d="M238.1 119.6c0 65.3-52.9 118.2-118.2 118.2S1.7 184.9 1.7 119.6 54.7 1.4 119.9 1.4s118.2 53 118.2 118.2"/><g id="XMLID_534_"><defs><path id="XMLID_535_" d="M143.7 138.7h-48c-3.2 0-5.9-2.7-5.9-5.9v-26.3c0-3.2 2.7-5.9 5.9-5.9h48c3.2 0 5.9 2.7 5.9 5.9v26.3c0 3.2-2.6 5.9-5.9 5.9z"/></defs><use xlink:href="#XMLID_535_" overflow="visible" fill="#fff"/><clipPath id="XMLID_54_"><use xlink:href="#XMLID_535_" overflow="visible"/></clipPath><path id="XMLID_1343_" class="st2" d="M108.4 113.9l-30.3 40.3"/><path id="XMLID_1342_" class="st2" d="M132.4 115.4l30.3 40.3"/><path id="XMLID_1341_" class="st2" d="M89.5 101.7l30.2 19.5"/><path id="XMLID_1340_" class="st2" d="M119.7 121.2l34-21.4"/></g></svg>