<svg id="Layer_1" xmlns="http://www.w3.org/2000/svg" viewBox="0 0 96.4 96.4"><style>.st0{fill:#5cd59b}.st1{fill:#fff;stroke:#fff;stroke-width:2;stroke-miterlimit:10}</style><g id="XMLID_84_"><circle id="XMLID_358_" class="st0" cx="48.2" cy="48.2" r="48.2"/><g id="XMLID_359_"><path id="XMLID_357_" class="st1" d="M74.8 28.3H21.2c-2 0-3.6 1.6-3.6 3.6s1.6 3.6 3.6 3.6h53.6c2 0 3.6-1.6 3.6-3.6.1-2-1.6-3.6-3.6-3.6z"/><path id="XMLID_356_" class="st1" d="M74.8 45.8H21.2c-2 0-3.6 1.6-3.6 3.6s1.6 3.6 3.6 3.6h53.6c2 0 3.6-1.6 3.6-3.6.1-2-1.6-3.6-3.6-3.6z"/><path id="XMLID_354_" class="st1" d="M74.8 63.3H21.2c-2 0-3.6 1.6-3.6 3.6s1.6 3.6 3.6 3.6h53.6c2 0 3.6-1.6 3.6-3.6.1-2-1.6-3.6-3.6-3.6z"/></g></g></svg>