<svg id="Layer_1" xmlns="http://www.w3.org/2000/svg" viewBox="0 0 251.1 244.2"><style>.st0{fill:#fff}</style><g id="XMLID_1441_"><path id="XMLID_1693_" class="st0" d="M243 13.8l-8.1 2.6 4.2 1.3c-9.8 10.4-57.7 61.1-64.6 66.1-15.4 11.4-33.3 17.9-52.5 17.9-19.2 0-37.2-6.4-52.5-17.9-9.7-7.3-28-27.3-28-27.3s-2.9.6-6.4 2.2c-1.8.8-2 1-2 1s22.8 24.4 31 30.7c16.8 13 36.7 20.4 57.9 20.5h.2c21.2 0 41-7.5 57.9-20.5 19.2-14.8 57-56.5 66-66.5l1.6 3.9 1.8-8.3 1.8-8.3-8.3 2.6z"/><g id="XMLID_1442_"><g id="XMLID_1493_"><g id="XMLID_229_"><path id="XMLID_253_" class="st0" d="M21.5 220c.3.8.4 1.6.4 2.6v14.9h-2.7v-14.9c0-2.9-2-4.4-5.9-4.4-1.7 0-3.7.1-5.8.2l-1.2.1v-2.3c2.6-.2 4.9-.2 7.1-.2s3.9.3 5.3 1 2.2 1.6 2.8 3zM9 237.6H6.3V224H9v13.6z"/><path id="XMLID_251_" class="st0" d="M31 216.1c.8-.2 1.7-.2 2.6-.2.9 0 1.8.1 2.6.3.8.2 1.4.5 2 .9.5.4 1 .8 1.5 1.3.4.5.8 1 1 1.6.3.5.5 1.1.6 1.7.3 1.1.4 2.2.4 3.3v3.6c0 .7-.1 1.4-.2 2.1-.1.8-.3 1.4-.5 2-.2.5-.5 1.2-.9 1.8-.4.7-.9 1.2-1.5 1.7s-1.3.8-2.2 1.2c-.9.3-1.9.5-2.9.5s-1.9 0-2.7-.1c-.8-.1-1.3-.2-1.6-.3l-.5-.1v-2.5c1.4.5 3 .7 4.7.7.7 0 1.3-.1 1.8-.3.5-.2 1-.4 1.4-.7.4-.3.7-.7 1-1.1.3-.4.5-.8.6-1.3.1-.4.3-.8.3-1.3.1-.7.2-1.4.2-2.2v-3.2c0-1.4-.2-2.6-.5-3.5-.1-.4-.3-.8-.6-1.3s-.6-.8-1-1.2c-.4-.3-.8-.6-1.4-.8s-1.3-.3-2.1-.3-1.6.1-2.4.2c-.8.1-1.3.3-1.7.4l-.5.2v-2.4c.1-.1.3-.1.5-.2.7-.2 1.2-.3 2-.5z"/><path id="XMLID_249_" class="st0" d="M47.4 216c1.5-.1 2.9-.1 4.2-.1 1.2 0 2.2.1 3.1.2.8.1 1.6.4 2.3.7.7.3 1.3.8 1.8 1.3 1 1.1 1.5 2.6 1.5 4.6v14.9h-2.7v-14.9c0-2.9-2-4.4-5.9-4.4-1.2 0-2.6 0-4.1.1V216z"/><path id="XMLID_247_" class="st0" d="M82.4 216.2v1.9c-2.3.7-3.4 2.2-3.4 4.8v14.7h-2.7v-14.7c0-.7.1-1.2.2-1.8.2-.5.3-1 .6-1.3.5-.6.9-1.1 1.2-1.2l.2-.1v-.1H66.8v-2.1h15.6z"/><path id="XMLID_244_" class="st0" d="M104.4 220c.3.8.4 1.6.4 2.6v14.9h-2.7v-14.9c0-2.9-2-4.4-5.9-4.4-1.7 0-3.7.1-5.8.2l-1.2.1v-2.3c2.6-.2 4.9-.2 7.1-.2s3.9.3 5.3 1 2.3 1.6 2.8 3zM92 237.6h-2.7V224H92v13.6z"/><path id="XMLID_241_" class="st0" d="M128.6 220c.3.8.4 1.6.4 2.6v14.9h-2.7v-14.9c0-2.9-2-4.4-5.9-4.4-1.7 0-3.7.1-5.8.2l-1.2.1v-2.3c2.6-.2 4.9-.2 7.1-.2 2.1 0 3.9.3 5.3 1 1.3.5 2.3 1.6 2.8 3zm-12.4 17.6h-2.7V224h2.7v13.6z"/><path id="XMLID_239_" class="st0" d="M159.7 237.8c-.5 0-1-.1-1.7-.2v-2.3c.8.1 1.3.2 1.3.2 1.6 0 2.4-.9 2.4-2.8v-14.1l-2.3.2v-2.3c3.1-.4 5.8-.5 8.1-.5 2 0 3.6.3 5 .9 1.4.7 2.4 1.7 2.9 3.2.3.8.4 1.6.4 2.6v14.9H173v-14.9c0-2.9-2-4.4-5.9-4.4-.5 0-1.4 0-2.6.1v14c0 1.7-.4 3.1-1.2 4.1-.8.8-2 1.3-3.6 1.3z"/><path id="XMLID_237_" class="st0" d="M184.2 230.4v-14.1h2.7v11.3l-2.2 2.8h-.5z"/><path id="XMLID_235_" class="st0" d="M195.1 230.4v-14.1h2.7v11.3l-2.2 2.8h-.5z"/><path id="XMLID_233_" class="st0" d="M204.2 216c1.5-.1 2.9-.1 4.2-.1 1.2 0 2.2.1 3.1.2.8.1 1.6.4 2.3.7.7.3 1.3.8 1.8 1.3 1 1.1 1.5 2.6 1.5 4.6v14.9h-2.7v-14.9c0-2.9-2-4.4-5.9-4.4-1.2 0-2.6 0-4.1.1V216z"/><path id="XMLID_230_" class="st0" d="M236.4 237v.6h-2.7v-.6c0-.8.2-1.9.5-3.3.4-1.4.6-2.4.8-3 .3-1.2.7-2.7 1.2-4.3l2.4-8.1h-13v-2.1h15.7v2.1l-2.5 8.4c-.3 1-.5 1.9-.7 2.5-.2.7-.4 1.3-.6 2-.2.7-.3 1.3-.5 1.8-.1.5-.2 1-.4 1.6-.1 1.1-.2 1.9-.2 2.4zm-8 8.7h-2.7v-20.9h2.7v20.9z"/></g></g><g id="XMLID_1456_"><g id="XMLID_147_"><path id="XMLID_163_" class="st0" d="M14.5 172.7h14.1v5.1L25 190.3l-2.4 10.4h-8.3l2.4-10.7 3.2-10.8H6.1v-12h8.4v5.5z"/><path id="XMLID_160_" class="st0" d="M44.3 169.1l.3.5c-1.3 5.3-2.6 9.3-3.8 12.1h-6c1-4.6 1.7-8.8 2.1-12.6h7.4zm11 0l.3.5c-1.3 5.3-2.6 9.4-3.8 12.1h-6c1-4.6 1.7-8.8 2.1-12.6h7.4z"/><path id="XMLID_158_" class="st0" d="M63.3 191.7v-19h8.4v13.1l-4.7 5.9h-3.7z"/><path id="XMLID_156_" class="st0" d="M92.8 172.6c1.2-.2 2.4-.3 3.5-.3s2.2.1 3.2.4c1.1.3 2 .7 2.9 1.4.9.6 1.5 1.5 2.1 2.6 1.1 2.2 1.6 5.4 1.6 9.7 0 4.7-1.1 8.3-3.3 10.9-2.2 2.6-5.3 3.9-9.3 3.9-1.7 0-3.2-.3-4.7-1s-2.7-1.6-3.8-2.9c-1.1-1.2-1.9-2.8-2.6-4.7-.6-1.9-.9-4-.9-6.2v-13.6h8.4v13.6c0 5.4 1.3 8.1 3.8 8.1 1.3 0 2.3-.6 2.9-1.9.6-1.3 1-3.3 1-6.1s-.3-4.8-.8-5.8c-.6-1.1-1.5-1.6-2.9-1.6l-1 .1v-6.6z"/><path id="XMLID_154_" class="st0" d="M137.8 172.7c2.9-.3 5.5-.5 7.8-.5 2.2 0 4 .1 5.3.3 1.3.2 2.3.6 3.2 1 .9.5 1.6 1 2.1 1.6.6.6 1 1.3 1.3 2.2.3.9.5 1.7.6 2.6.1.9.2 1.9.2 3v17.8h-8.4v-17.8c0-2.8-1.4-4.2-4.2-4.2-2.1 0-4.7.2-7.8.5v-6.5z"/><path id="XMLID_152_" class="st0" d="M176.8 200.7h-8.4v-28h8.4v28z"/><path id="XMLID_150_" class="st0" d="M208.2 172.7v5.9c-1.4.5-2.4 1.2-2.9 1.9s-.8 1.8-.8 3.4v16.9h-8.4v-17c0-1.9.7-3.4 2-4.5h-13.4v-6.5h23.5z"/><path id="XMLID_148_" class="st0" d="M222.8 172.7c.5.9.8 1.8 1 2.9h.3c.2-.3.7-.6 1.2-1.1.6-.4 1.1-.8 1.7-1.1.6-.3 1.3-.6 2.2-.8.9-.2 1.9-.4 3.1-.4 1.2 0 2.3.2 3.4.6 1.1.4 2 1 2.7 1.7.7.7 1.2 1.6 1.7 2.7.8 1.9 1.1 4.5 1.1 7.6v15.8h-13.5v-6.5h5V185c0-1.5-.1-2.6-.2-3.3-.2-.7-.4-1.2-.6-1.5-.5-.8-1.4-1.2-2.6-1.2-.5 0-1 .1-1.5.3-.5.2-.9.4-1.2.7-.7.6-1.2 1.1-1.4 1.6l-.2.3-1.6 18.9H215l1.6-17.7c.1-1 .2-2 .2-2.9 0-2.5-.5-4.9-1.4-7.4h7.4z"/></g></g><path id="XMLID_1455_" class="st0" d="M123.3 127.5h-.2c-4 0-9.2-.3-13.1-.8l13.1 22.7 13.3-23.1c-4.7.8-8.2 1.2-13.1 1.2z"/><g id="XMLID_1451_"><path id="XMLID_28_" class="st0" d="M47 71.8c-14.7 2.7-25.9 15.4-25.9 30.6 0 17.2 14.2 31.1 31.8 31.1s31.8-13.9 31.8-31.1c0-.7 0-1.4-.1-2.1C69.4 93.8 56.9 84.1 47 71.8z"/></g><g id="XMLID_1448_"><path id="XMLID_29_" class="st0" d="M198.2 71.8c-10.9 13.2-23.6 23.5-37.4 29.9v.7c0 17.2 14.2 31.1 31.8 31.1s31.8-13.9 31.8-31.1c0-15.3-11.3-28-26.2-30.6z"/></g><g id="XMLID_1446_"><path id="XMLID_1447_" class="st0" d="M192.1 149.2c-10.8 0-22-4-30.6-10.9-9.4-7.6-15.4-18.2-16.9-29.9 0-.1-.1-.7-.2-1.5-.7-4.3-1.1-6.9-1.1-7.8-.3-4.7-3.2-10.2-6-13.1-3-3.1-8.7-6.5-15.4-6.5-6.1 0-11.4 3.2-14.4 6.2-3.2 3.3-5.1 7.4-5.8 13-.1.8-.4 3.4-.7 5.7-.2 1.8-.4 3.4-.5 3.6-3 23.4-23.4 41.1-47.5 41.1-23.1 0-47.9-17.9-47.9-46.9-.2-14 5.6-26.2 16.5-35.2 8.1-6.7 16.2-9.3 16.6-9.4 1.8-.6 3.8.5 4.4 2.4.6 1.9-.5 3.9-2.4 4.5-1.2.4-28.2 9.2-28.2 37.9 0 24.6 21.2 39.8 40.8 39.8 17.4 0 37.5-12.2 40.4-34.9 0-.3.2-1.9.5-3.7.3-2.3.6-4.9.7-5.7.9-7.1 3.5-12.7 7.8-17.1 5.2-5.2 12.5-8.3 19.5-8.3 7.6 0 15.3 3.2 20.5 8.6 3.7 3.9 7.7 10.8 8 17.7.1.8.8 5.3 1 7 .2 1 .3 1.7.3 1.8 2.6 21.6 22.6 34.5 40.3 34.5 19.6 0 40.7-15.2 40.7-39.7 0-28.6-27.9-37.8-28.2-37.9-1.9-.6-2.9-2.6-2.3-4.5.6-1.9 2.6-2.9 4.5-2.3.3.1 8.4 2.8 16.5 9.5 10.9 9.1 16.6 21.3 16.6 35.2 0 13.1-5.3 25.2-14.9 34-8.5 8.2-20.5 12.8-32.6 12.8z"/></g><path id="XMLID_1445_" class="st0" d="M165.4 73.6c-23.5-23.5-61.8-23.5-85.3 0l-6.3-6.3C86.9 54.2 104.2 47 122.7 47s35.9 7.2 48.9 20.3l-6.2 6.3z"/><path id="XMLID_1444_" class="st0" d="M182 56.9c-32.6-32.6-85.8-32.6-118.4 0l-6.3-6.3c36.1-36.1 94.9-36.1 131 0l-6.3 6.3z"/><path id="XMLID_1443_" class="st0" d="M197.1 41.5c-41-41-107.7-41-148.8 0L42 35.2c44.5-44.5 116.8-44.5 161.3 0l-6.2 6.3z"/></g></g></svg>