<svg id="Layer_1" xmlns="http://www.w3.org/2000/svg" viewBox="0 0 239.3 240.2"><style>.st0,.st1{fill:none;stroke:#fff;stroke-width:15;stroke-miterlimit:10}.st1{stroke-width:3}.st2{fill:#fff}</style><g id="XMLID_1712_"><path id="XMLID_1717_" class="st0" d="M230.7 119.5c0 61.5-49.9 111.4-111.4 111.4S7.9 181.1 7.9 119.5 57.8 8.1 119.3 8.1"/><circle id="XMLID_1716_" class="st1" cx="119.5" cy="119.8" r="118.2"/><g id="XMLID_1714_"><path id="XMLID_1715_" class="st2" d="M84.3 91.9V88c.2-.1.2-.4.2-.6.2-.9.6-1.8 1.2-2.6 1.1-1.4 2.2-2.9 3.4-4.3 1.1-1.3 2.3-2.6 3.9-3.4.7-.4 1.6-.5 2.3-.8h2.2c.7.3 1.6.4 2.3.7 4.9 2.3 8.5 5.9 11 10.6 1 2 1.3 4.1.5 6.3-.5 1.7-1.3 3.2-2.3 4.6-1.2 1.7-1.2 3.7.1 5.4 4 5.4 8.7 10.1 14.1 14.1 1.3 1 3.6 1.5 5.4.1.7-.5 1.4-.9 2.1-1.3 2.3-1.1 4.6-1.8 7.1-1 1.9.6 3.5 1.7 5.1 2.8 3.2 2.4 5.6 5.4 7.3 9 .3.6.3 1.3.6 1.9v2.5c-.2.1-.2.3-.2.5-.4 1.5-1.1 2.8-2.2 4-2 2-4.2 3.7-6.5 5.3-.8.6-1.8.9-2.8 1-.1 0-.3-.1-.3.1h-3.5c0-.2-.2-.1-.3-.1-2.1-.3-4.2-1-6.1-1.8-6.1-2.6-11.5-6.2-16.4-10.4-4.1-3.5-7.8-7.5-11.6-11.3-4.6-4.7-8.7-9.8-11.9-15.6-1.6-2.8-2.9-5.7-3.8-8.8-.5-1.1-.5-2.1-.9-3z"/></g></g></svg>