<svg id="Layer_1" xmlns="http://www.w3.org/2000/svg" viewBox="0 0 239.5 239.3"><style>.st0,.st1{fill:none;stroke:#fff;stroke-width:15;stroke-miterlimit:10}.st1{stroke-width:3}.st2{fill-rule:evenodd;clip-rule:evenodd;fill:#fff}</style><path id="XMLID_1711_" class="st0" d="M231 119.8c0 61.5-49.9 111.4-111.4 111.4S8.2 181.3 8.2 119.8 58 8.4 119.6 8.4"/><path id="XMLID_1710_" class="st1" d="M238 120c0 65.3-52.9 118.2-118.2 118.2S1.6 185.3 1.6 120 54.5 1.8 119.8 1.8 238 54.8 238 120"/><g id="XMLID_1348_"><g id="XMLID_39_"><path id="XMLID_40_" class="st2" d="M154.7 95.8c0-5.8-4.7-10.5-10.5-10.5H94.9c-5.8 0-10.5 4.7-10.5 10.5V124c0 5.8 4.7 10.5 10.5 10.5h49.3c5.8 0 10.5-4.7 10.5-10.5V95.8zm-42.2 26V95.3l20.1 13.2-20.1 13.3zm0 0"/></g></g></svg>