<?xml version="1.0" encoding="utf-8"?>
<!-- Generator: Adobe Illustrator 19.0.0, SVG Export Plug-In . SVG Version: 6.00 Build 0)  -->
<svg version="1.1" id="Layer_1" xmlns="http://www.w3.org/2000/svg" xmlns:xlink="http://www.w3.org/1999/xlink" x="0px" y="0px"
	 viewBox="0 0 96.4 96.4" style="enable-background:new 0 0 96.4 96.4;" xml:space="preserve">
<style type="text/css">
	.st0{fill:#5CD59B;}
	.st1{fill:#FFFFFF;stroke:#FFFFFF;stroke-width:2;stroke-miterlimit:10;}
</style>
<g id="XMLID_84_">
	<circle id="XMLID_358_" class="st0" cx="48.2" cy="48.2" r="48.2"/>
	<g id="XMLID_359_">
		<path id="XMLID_357_" class="st1" d="M74.8,28.3l-53.6,0c-2,0-3.6,1.6-3.6,3.6c0,2,1.6,3.6,3.6,3.6l53.6,0c2,0,3.6-1.6,3.6-3.6
			C78.5,29.9,76.8,28.3,74.8,28.3z"/>
		<path id="XMLID_356_" class="st1" d="M74.8,45.8l-53.6,0c-2,0-3.6,1.6-3.6,3.6c0,2,1.6,3.6,3.6,3.6l53.6,0c2,0,3.6-1.6,3.6-3.6
			C78.5,47.4,76.8,45.8,74.8,45.8z"/>
		<path id="XMLID_354_" class="st1" d="M74.8,63.3l-53.6,0c-2,0-3.6,1.6-3.6,3.6c0,2,1.6,3.6,3.6,3.6l53.6,0c2,0,3.6-1.6,3.6-3.6
			C78.5,64.9,76.8,63.3,74.8,63.3z"/>
	</g>
</g>
</svg>
