<?xml version="1.0" encoding="utf-8"?>
<!-- Generator: Adobe Illustrator 19.0.0, SVG Export Plug-In . SVG Version: 6.00 Build 0)  -->
<svg version="1.1" id="Layer_1" xmlns="http://www.w3.org/2000/svg" xmlns:xlink="http://www.w3.org/1999/xlink" x="0px" y="0px"
	 viewBox="0 0 239.3 240.2" style="enable-background:new 0 0 239.3 240.2;" xml:space="preserve">
<style type="text/css">
	.st0{fill:none;stroke:#FFFFFF;stroke-width:15;stroke-miterlimit:10;}
	.st1{fill:none;stroke:#FFFFFF;stroke-width:3;stroke-miterlimit:10;}
	.st2{fill:#FFFFFF;}
</style>
<g id="XMLID_1712_">
	<path id="XMLID_1717_" class="st0" d="M230.7,119.5c0,61.5-49.9,111.4-111.4,111.4S7.9,181.1,7.9,119.5S57.8,8.1,119.3,8.1"/>
	<circle id="XMLID_1716_" class="st1" cx="119.5" cy="119.8" r="118.2"/>
	<g id="XMLID_1714_">
		<path id="XMLID_1715_" class="st2" d="M84.3,91.9c0-1.3,0-2.6,0-3.9c0.2-0.1,0.2-0.4,0.2-0.6c0.2-0.9,0.6-1.8,1.2-2.6
			c1.1-1.4,2.2-2.9,3.4-4.3c1.1-1.3,2.3-2.6,3.9-3.4c0.7-0.4,1.6-0.5,2.3-0.8c0.7,0,1.5,0,2.2,0c0.7,0.3,1.6,0.4,2.3,0.7
			c4.9,2.3,8.5,5.9,11,10.6c1,2,1.3,4.1,0.5,6.3c-0.5,1.7-1.3,3.2-2.3,4.6c-1.2,1.7-1.2,3.7,0.1,5.4c4,5.4,8.7,10.1,14.1,14.1
			c1.3,1,3.6,1.5,5.4,0.1c0.7-0.5,1.4-0.9,2.1-1.3c2.3-1.1,4.6-1.8,7.1-1c1.9,0.6,3.5,1.7,5.1,2.8c3.2,2.4,5.6,5.4,7.3,9
			c0.3,0.6,0.3,1.3,0.6,1.9c0,0.8,0,1.6,0,2.5c-0.2,0.1-0.2,0.3-0.2,0.5c-0.4,1.5-1.1,2.8-2.2,4c-2,2-4.2,3.7-6.5,5.3
			c-0.8,0.6-1.8,0.9-2.8,1c-0.1,0-0.3-0.1-0.3,0.1c-1.2,0-2.3,0-3.5,0c0-0.2-0.2-0.1-0.3-0.1c-2.1-0.3-4.2-1-6.1-1.8
			c-6.1-2.6-11.5-6.2-16.4-10.4c-4.1-3.5-7.8-7.5-11.6-11.3c-4.6-4.7-8.7-9.8-11.9-15.6c-1.6-2.8-2.9-5.7-3.8-8.8
			C84.7,93.8,84.7,92.8,84.3,91.9z"/>
	</g>
</g>
</svg>
