<?xml version="1.0" encoding="utf-8"?>
<!-- Generator: Adobe Illustrator 19.0.0, SVG Export Plug-In . SVG Version: 6.00 Build 0)  -->
<svg version="1.1" id="Layer_1" xmlns="http://www.w3.org/2000/svg" xmlns:xlink="http://www.w3.org/1999/xlink" x="0px" y="0px"
	 viewBox="0 0 239.5 239.3" style="enable-background:new 0 0 239.5 239.3;" xml:space="preserve">
<style type="text/css">
	.st0{fill:none;stroke:#FFFFFF;stroke-width:15;stroke-miterlimit:10;}
	.st1{fill:none;stroke:#FFFFFF;stroke-width:3;stroke-miterlimit:10;}
	.st2{fill-rule:evenodd;clip-rule:evenodd;fill:#FFFFFF;}
</style>
<path id="XMLID_1711_" class="st0" d="M231,119.8c0,61.5-49.9,111.4-111.4,111.4S8.2,181.3,8.2,119.8S58,8.4,119.6,8.4"/>
<path id="XMLID_1710_" class="st1" d="M238,120c0,65.3-52.9,118.2-118.2,118.2S1.6,185.3,1.6,120S54.5,1.8,119.8,1.8
	S238,54.8,238,120"/>
<g id="XMLID_1348_">
	<g id="XMLID_39_">
		<path id="XMLID_40_" class="st2" d="M154.7,95.8c0-5.8-4.7-10.5-10.5-10.5H94.9c-5.8,0-10.5,4.7-10.5,10.5V124
			c0,5.8,4.7,10.5,10.5,10.5h49.3c5.8,0,10.5-4.7,10.5-10.5V95.8z M112.5,121.8V95.3l20.1,13.2L112.5,121.8z M112.5,121.8"/>
	</g>
</g>
</svg>
